<svg height="512pt" viewBox="0 -61 512 512" width="512pt" xmlns="http://www.w3.org/2000/svg"><path d="m512 195c0-69.367188-52.59375-126.675781-120-134.160156v-30.839844h30v-30h-150v30h30v30h-167c-74.4375 0-135 60.5625-135 135 0 42.367188 19.621094 80.230469 50.25 105h-50.25v29.988281h32.578125c-1.664063 4.695313-2.578125 9.753907-2.578125 15.011719 0 24.8125 20.1875 45 45 45s45-20.1875 45-45c0-5.257812-.914062-10.316406-2.578125-15.011719h36.160156c-1.667969 4.695313-2.582031 9.753907-2.582031 15.011719 0 24.8125 20.1875 45 45 45s45-20.1875 45-45c0-5.257812-.914062-10.316406-2.578125-15.011719h36.160156c-1.664062 4.695313-2.578125 9.753907-2.578125 15.011719 0 24.8125 20.183594 45 45 45 24.8125 0 45-20.1875 45-45 0-5.257812-.917968-10.316406-2.582031-15.011719h35.160156c-1.664062 4.695313-2.578125 9.753907-2.578125 15.011719 0 24.8125 20.1875 45 45 45s45-20.1875 45-45c0-5.257812-.914062-10.304688-2.582031-15h32.578125v-30h-50.25c30.628906-24.769531 50.25-62.632812 50.25-105zm-180-165h30v30h-30zm-151 270v-30h30v30zm30-60h-30v-30h30zm0-60h-30v-30h30zm0-60h-30v-30h30zm-121 225c0 8.269531-6.730469 15-15 15s-15-6.730469-15-15 6.730469-15.011719 15-15.011719 15 6.742188 15 15.011719zm-60-150c0-57.898438 47.101562-105 105-105h16v210h-16c-57.898438 0-105-47.101562-105-105zm181 150c0 8.269531-6.730469 15-15 15s-15-6.730469-15-15 6.730469-15 15-15 15 6.730469 15 15zm121 0c0 8.269531-6.730469 15-15 15s-15-6.730469-15-15 6.730469-15 15-15 15 6.730469 15 15zm-91-45v-210h136c57.898438 0 105 47.101562 105 105s-47.101562 105-105 105zm211 45c0 8.269531-6.730469 15-15 15s-15-6.730469-15-15 6.730469-15 15-15 15 6.730469 15 15zm0 0"/><path d="m332 150h90v30h-90zm0 0"/><path d="m332 210h60v30h-60zm0 0"/></svg>